<svg xmlns="http://www.w3.org/2000/svg" xmlns:xlink="http://www.w3.org/1999/xlink" width="500" zoomAndPan="magnify" viewBox="0 0 375 374.999991" height="500" preserveAspectRatio="xMidYMid meet" version="1.0"><defs><g/><clipPath id="7ea54b2d0e"><path d="M 75 0 L 300 0 C 341.421875 0 375 33.578125 375 75 L 375 300 C 375 341.421875 341.421875 375 300 375 L 75 375 C 33.578125 375 0 341.421875 0 300 L 0 75 C 0 33.578125 33.578125 0 75 0 Z M 75 0 " clip-rule="nonzero"/></clipPath></defs><g clip-path="url(#7ea54b2d0e)"><rect x="-37.5" width="450" fill="#8f9eb3" y="-37.499999" height="449.999989" fill-opacity="1"/></g><g fill="#0e162d" fill-opacity="1"><g transform="translate(24.863784, 268.31106)"><g><path d="M 37.109375 -159.390625 L 63.75 -159.390625 C 73.320312 -159.390625 81.03125 -156.847656 86.875 -151.765625 C 92.71875 -146.679688 95.640625 -139.050781 95.640625 -128.875 C 95.640625 -127.050781 95.523438 -125.113281 95.296875 -123.0625 C 95.066406 -121.019531 94.800781 -118.9375 94.5 -116.8125 L 80.375 -36.4375 C 77.800781 -22.769531 73.210938 -13.28125 66.609375 -7.96875 C 60.003906 -2.65625 51.84375 0 42.125 0 L 9.109375 0 Z M 42.578125 -22.765625 C 45.617188 -22.765625 48.238281 -23.828125 50.4375 -25.953125 C 52.632812 -28.078125 54.265625 -32.023438 55.328125 -37.796875 L 69.90625 -120 C 70.207031 -121.363281 70.359375 -122.425781 70.359375 -123.1875 C 70.359375 -123.945312 70.359375 -124.78125 70.359375 -125.6875 C 70.359375 -129.332031 69.597656 -132.066406 68.078125 -133.890625 C 66.566406 -135.710938 64.671875 -136.625 62.390625 -136.625 L 58.0625 -136.625 L 38.03125 -22.765625 Z M 42.578125 -22.765625 "/></g></g></g><g fill="#0e162d" fill-opacity="1"><g transform="translate(101.143545, 268.31106)"><g><path d="M -0.6875 36.4375 C -4.476562 36.4375 -7.359375 36.207031 -9.328125 35.75 C -10.546875 35.445312 -11.535156 35.144531 -12.296875 34.84375 L -8.203125 12.0625 C -7.585938 12.375 -6.898438 12.679688 -6.140625 12.984375 C -5.078125 13.429688 -3.484375 13.65625 -1.359375 13.65625 C 1.671875 13.65625 3.941406 12.707031 5.453125 10.8125 C 6.972656 8.914062 8.113281 5.765625 8.875 1.359375 L 37.109375 -159.390625 L 62.15625 -159.390625 L 33.703125 3.1875 C 31.578125 14.570312 27.664062 22.957031 21.96875 28.34375 C 16.28125 33.738281 8.726562 36.4375 -0.6875 36.4375 Z M -0.6875 36.4375 "/></g></g></g><g fill="#0e162d" fill-opacity="1"><g transform="translate(139.852652, 268.31106)"><g><path d="M 42.359375 2.28125 C 33.097656 2.28125 25.960938 -0.335938 20.953125 -5.578125 C 15.941406 -10.816406 13.4375 -17.914062 13.4375 -26.875 C 13.4375 -29.90625 13.816406 -33.546875 14.578125 -37.796875 L 30.28125 -127.0625 C 31.34375 -133.132812 33.007812 -138.367188 35.28125 -142.765625 C 37.5625 -147.171875 40.21875 -150.773438 43.25 -153.578125 C 46.289062 -156.390625 49.671875 -158.441406 53.390625 -159.734375 C 57.109375 -161.023438 60.941406 -161.671875 64.890625 -161.671875 C 74.609375 -161.671875 81.929688 -158.898438 86.859375 -153.359375 C 91.796875 -147.816406 94.265625 -140.796875 94.265625 -132.296875 C 94.265625 -129.410156 93.882812 -125.84375 93.125 -121.59375 L 90.171875 -105.875 L 65.125 -105.875 L 68.765625 -125.6875 C 69.066406 -126.75 69.21875 -127.734375 69.21875 -128.640625 C 69.21875 -129.554688 69.21875 -130.394531 69.21875 -131.15625 C 69.21875 -134.039062 68.6875 -136.050781 67.625 -137.1875 C 66.5625 -138.332031 65.347656 -138.90625 63.984375 -138.90625 C 61.859375 -138.90625 60.035156 -138.144531 58.515625 -136.625 C 57.003906 -135.101562 55.867188 -131.914062 55.109375 -127.0625 L 38.703125 -33.015625 C 38.253906 -30.734375 38.03125 -28.910156 38.03125 -27.546875 C 38.03125 -25.117188 38.519531 -23.335938 39.5 -22.203125 C 40.488281 -21.066406 41.742188 -20.5 43.265625 -20.5 C 44.929688 -20.5 46.632812 -21.179688 48.375 -22.546875 C 50.125 -23.910156 51.457031 -27.171875 52.375 -32.328125 L 56.703125 -56.921875 L 81.75 -56.921875 L 77.421875 -33.015625 C 75.441406 -22.085938 71.53125 -13.472656 65.6875 -7.171875 C 59.84375 -0.867188 52.066406 2.28125 42.359375 2.28125 Z M 42.359375 2.28125 "/></g></g></g><g fill="#0e162d" fill-opacity="1"><g transform="translate(213.855404, 268.31106)"><g><path d="M 40.53125 -159.390625 L 68.53125 -159.390625 L 65.8125 -92.21875 C 65.65625 -89.632812 65.535156 -86.976562 65.453125 -84.25 C 65.378906 -81.519531 65.269531 -78.941406 65.125 -76.515625 C 64.96875 -73.773438 64.816406 -71.039062 64.671875 -68.3125 L 65.34375 -68.3125 C 66.101562 -71.039062 66.863281 -73.773438 67.625 -76.515625 C 68.988281 -81.367188 70.660156 -86.601562 72.640625 -92.21875 L 94.71875 -159.390625 L 123.640625 -159.390625 L 100.1875 0 L 75.140625 0 L 87.890625 -72.859375 C 88.648438 -76.804688 89.484375 -81.398438 90.390625 -86.640625 C 91.304688 -91.878906 92.21875 -96.851562 93.125 -101.5625 C 94.1875 -107.019531 95.328125 -112.632812 96.546875 -118.40625 L 95.859375 -118.40625 L 66.265625 -27.328125 L 49.1875 -27.328125 L 52.59375 -118.40625 L 51.921875 -118.40625 C 50.859375 -112.632812 49.945312 -107.019531 49.1875 -101.5625 C 48.425781 -96.851562 47.664062 -91.878906 46.90625 -86.640625 C 46.144531 -81.398438 45.382812 -76.804688 44.625 -72.859375 L 31.875 0 L 6.828125 0 Z M 40.53125 -159.390625 "/></g></g></g></svg>