<svg xmlns="http://www.w3.org/2000/svg" xmlns:xlink="http://www.w3.org/1999/xlink" width="500" zoomAndPan="magnify" viewBox="0 0 375 374.999991" height="500" preserveAspectRatio="xMidYMid meet" version="1.0"><defs><g/></defs><g fill="#8f9eb3" fill-opacity="1"><g transform="translate(16.801963, 175.55726)"><g><path d="M 14.390625 0 L 14.390625 -143.953125 L 129.5625 -143.953125 L 129.5625 -115.171875 L 43.1875 -115.171875 L 43.1875 -28.796875 L 129.5625 -28.796875 L 129.5625 0 Z M 129.5625 -28.796875 L 129.5625 -115.171875 L 158.359375 -115.171875 L 158.359375 -28.796875 Z M 129.5625 -28.796875 "/></g></g></g><g fill="#8f9eb3" fill-opacity="1"><g transform="translate(185.433073, 175.55726)"><g><path d="M 129.5625 -28.796875 L 129.5625 0 L 43.1875 0 L 43.1875 -28.796875 Z M 14.390625 -28.796875 L 14.390625 -86.375 L 43.1875 -86.375 L 43.1875 -28.796875 Z M 129.5625 -28.796875 L 129.5625 -143.953125 L 158.359375 -143.953125 L 158.359375 -28.796875 Z M 129.5625 -28.796875 "/></g></g></g><g fill="#8f9eb3" fill-opacity="1"><g transform="translate(16.801963, 343.684755)"><g><path d="M 43.1875 -115.171875 L 43.1875 -28.796875 L 14.390625 -28.796875 L 14.390625 -115.171875 Z M 43.1875 0 L 43.1875 -28.796875 L 158.359375 -28.796875 L 158.359375 0 Z M 43.1875 -115.171875 L 43.1875 -143.953125 L 158.359375 -143.953125 L 158.359375 -115.171875 Z M 43.1875 -115.171875 "/></g></g></g><g fill="#8f9eb3" fill-opacity="1"><g transform="translate(185.433073, 343.684755)"><g><path d="M 129.5625 0 L 129.5625 -86.375 L 100.765625 -86.375 L 100.765625 -115.171875 L 129.5625 -115.171875 L 129.5625 -143.953125 L 158.359375 -143.953125 L 158.359375 0 Z M 14.390625 0 L 14.390625 -143.953125 L 43.1875 -143.953125 L 43.1875 -115.171875 L 71.984375 -115.171875 L 71.984375 -86.375 L 43.1875 -86.375 L 43.1875 0 Z M 71.984375 -57.578125 L 71.984375 -86.375 L 100.765625 -86.375 L 100.765625 -57.578125 Z M 71.984375 -57.578125 "/></g></g></g></svg>